<?xml version="1.0" encoding="utf-8"?>
<!-- Generator: Adobe Illustrator 18.1.1, SVG Export Plug-In . SVG Version: 6.00 Build 0)  -->
<svg version="1.1" id="Layer_1" xmlns="http://www.w3.org/2000/svg" xmlns:xlink="http://www.w3.org/1999/xlink" x="0px" y="0px"
	 viewBox="0 0 374.4 374.4" enable-background="new 0 0 374.4 374.4" xml:space="preserve">
<g>
	<rect x="7.2" y="7.2" width="360" height="360"/>
	<path fill="#FFFFFF" d="M126,220.3h-0.4c-3.1,4.8-7.1,8.2-12.2,10.3c-5.1,2.1-10.4,3.1-16.1,3.1c-4.2,0-8.2-0.6-12-1.7
		s-7.2-2.9-10.2-5.2c-2.9-2.3-5.3-5.2-7-8.6c-1.7-3.4-2.6-7.4-2.6-11.9c0-5.1,0.9-9.5,2.8-13c1.9-3.6,4.5-6.5,7.7-8.8
		c3.2-2.3,6.9-4.1,11.1-5.4s8.5-2.2,12.9-2.8c4.5-0.6,8.9-1,13.4-1.1c4.5-0.1,8.6-0.2,12.4-0.2c0-4.9-1.7-8.8-5.2-11.7
		c-3.5-2.9-7.6-4.3-12.4-4.3c-4.5,0-8.7,0.9-12.4,2.8c-3.7,1.9-7.1,4.5-10,7.8l-14.7-15.1c5.1-4.8,11.1-8.4,18-10.7
		c6.9-2.4,14-3.6,21.3-3.6c8.1,0,14.7,1,19.9,3c5.2,2,9.4,5,12.5,8.9c3.1,3.9,5.3,8.7,6.5,14.4c1.2,5.7,1.8,12.3,1.8,19.7v45.3H126
		V220.3z M119.2,192.4c-2.1,0-4.7,0.1-7.8,0.3c-3.1,0.2-6.1,0.7-9,1.6c-2.9,0.9-5.3,2.1-7.3,3.9c-2,1.7-3,4.1-3,7.2
		c0,3.3,1.4,5.8,4.2,7.3c2.8,1.6,5.8,2.4,8.8,2.4c2.7,0,5.3-0.4,7.8-1.1c2.5-0.7,4.7-1.8,6.7-3.1c2-1.3,3.5-3.1,4.7-5.1
		c1.2-2.1,1.7-4.5,1.7-7.3v-5.9H119.2z"/>
	<path fill="#FFFFFF" d="M168.6,142.3H195v12.1h0.4c0.9-1.7,2.1-3.4,3.7-5.1c1.6-1.7,3.5-3.2,5.7-4.6c2.2-1.3,4.7-2.4,7.5-3.3
		c2.8-0.9,5.9-1.3,9.2-1.3c6.2,0,11.8,1.3,16.6,3.9c4.8,2.6,8.5,6.6,10.9,12.1c3.2-5.8,7-9.9,11.6-12.3c4.5-2.4,10.1-3.7,16.7-3.7
		c6,0,11,1,15.1,3c4.1,2,7.3,4.8,9.7,8.3c2.4,3.5,4.1,7.6,5.1,12.3c1,4.7,1.6,9.8,1.6,15.1v52.7h-27.5v-52c0-4.2-0.9-7.7-2.7-10.7
		c-1.8-3-4.9-4.5-9.5-4.5c-3.2,0-5.8,0.5-8,1.6c-2.1,1-3.9,2.5-5.1,4.3c-1.3,1.8-2.2,4-2.8,6.4c-0.6,2.4-0.8,5-0.8,7.7v47.2h-27.5
		v-47.2c0-1.6-0.1-3.5-0.2-5.9c-0.1-2.3-0.6-4.5-1.3-6.6c-0.7-2.1-1.9-3.9-3.6-5.3c-1.7-1.5-4.1-2.2-7.2-2.2c-3.6,0-6.4,0.6-8.6,1.9
		c-2.2,1.3-3.9,3-5,5.1c-1.2,2.1-1.9,4.6-2.3,7.2c-0.4,2.7-0.5,5.5-0.5,8.4v44.4h-27.5V142.3z"/>
	<g>
		<path fill="#FFFFFF" d="M69.1,259.4c1-1,2.2-1.8,3.6-2.3c1.4-0.5,2.8-0.7,4.2-0.7c2.9,0,5,0.7,6.3,2.1c1.3,1.4,1.9,3.5,1.9,6.3
			v8.5c0,0.6,0,1.1,0.1,1.7c0.1,0.6,0.1,1.2,0.2,1.7h-3.2c-0.1-0.4-0.2-0.9-0.2-1.5c0-0.5,0-1,0-1.5H82c-0.6,1-1.5,1.8-2.6,2.5
			c-1.1,0.6-2.4,1-3.9,1c-1,0-2-0.1-2.8-0.4c-0.9-0.3-1.7-0.6-2.3-1.1c-0.7-0.5-1.2-1.1-1.6-1.8c-0.4-0.7-0.6-1.6-0.6-2.5
			c0-1.6,0.4-2.9,1.3-3.8c0.8-0.9,1.9-1.6,3.1-2.1c1.2-0.4,2.6-0.7,4-0.8c1.4-0.1,2.8-0.2,4-0.2h1.3v-0.6c0-1.4-0.4-2.5-1.3-3.2
			s-2.1-1.1-3.6-1.1c-1.1,0-2.1,0.2-3.1,0.5c-1,0.4-1.9,0.9-2.7,1.6L69.1,259.4z M78.6,267.1c-2.1,0-3.8,0.3-5,0.9s-1.9,1.6-1.9,2.9
			c0,1.2,0.4,2.1,1.2,2.6c0.8,0.5,1.9,0.8,3.1,0.8c1,0,1.8-0.2,2.5-0.5c0.7-0.3,1.3-0.8,1.8-1.3c0.5-0.5,0.8-1.2,1.1-1.9
			c0.3-0.7,0.4-1.5,0.4-2.3v-1.3H78.6z"/>
		<path fill="#FFFFFF" d="M91.2,261.6c0-0.9,0-1.7-0.1-2.5c-0.1-0.8-0.1-1.5-0.1-2.1h3.1c0,0.5,0,1.1,0,1.6c0,0.5,0,1.1,0,1.6h0.1
			c0.2-0.5,0.5-0.9,0.9-1.4c0.4-0.4,0.9-0.8,1.5-1.2c0.6-0.4,1.2-0.6,1.9-0.8c0.7-0.2,1.5-0.3,2.3-0.3c0.2,0,0.4,0,0.7,0
			c0.2,0,0.4,0.1,0.7,0.2l-0.2,3.3c-0.6-0.2-1.1-0.3-1.8-0.3c-2,0-3.5,0.6-4.4,2s-1.4,3.1-1.4,5.4v9.6h-3.3V261.6z"/>
		<path fill="#FFFFFF" d="M116.7,259.7h-5.8v9.8c0,0.6,0,1.2,0,1.8c0,0.5,0.1,1,0.3,1.4c0.2,0.4,0.5,0.7,0.9,1
			c0.4,0.2,1,0.4,1.7,0.4c0.5,0,1-0.1,1.5-0.2c0.5-0.1,1-0.3,1.4-0.5l0.1,3c-0.6,0.3-1.2,0.4-1.9,0.5c-0.7,0.1-1.3,0.2-2,0.2
			c-1.2,0-2.1-0.2-2.8-0.5c-0.7-0.3-1.2-0.7-1.6-1.3c-0.4-0.6-0.7-1.3-0.8-2.1c-0.1-0.8-0.2-1.7-0.2-2.8v-10.8h-4.3v-2.8h4.3v-5.6
			h3.3v5.6h5.8V259.7z"/>
		<path fill="#FFFFFF" d="M133.1,246.8h5.3l10.1,23.3h0.1l10.2-23.3h5.1v29.8h-3.5v-25h-0.1l-10.7,25h-2.1l-10.7-25h-0.1v25h-3.5
			V246.8z"/>
		<path fill="#E5D61D" d="M170.4,259.4c1-1,2.2-1.8,3.6-2.3c1.4-0.5,2.8-0.7,4.2-0.7c2.9,0,5,0.7,6.3,2.1c1.3,1.4,1.9,3.5,1.9,6.3
			v8.5c0,0.6,0,1.1,0.1,1.7c0.1,0.6,0.1,1.2,0.2,1.7h-3.2c-0.1-0.4-0.2-0.9-0.2-1.5c0-0.5,0-1,0-1.5h-0.1c-0.6,1-1.5,1.8-2.6,2.5
			c-1.1,0.6-2.4,1-3.9,1c-1,0-2-0.1-2.8-0.4c-0.9-0.3-1.7-0.6-2.3-1.1c-0.7-0.5-1.2-1.1-1.6-1.8c-0.4-0.7-0.6-1.6-0.6-2.5
			c0-1.6,0.4-2.9,1.3-3.8c0.8-0.9,1.9-1.6,3.1-2.1c1.2-0.4,2.6-0.7,4-0.8c1.4-0.1,2.8-0.2,4-0.2h1.3v-0.6c0-1.4-0.4-2.5-1.3-3.2
			s-2.1-1.1-3.6-1.1c-1.1,0-2.1,0.2-3.1,0.5c-1,0.4-1.9,0.9-2.7,1.6L170.4,259.4z M179.9,267.1c-2.1,0-3.8,0.3-5,0.9
			s-1.9,1.6-1.9,2.9c0,1.2,0.4,2.1,1.2,2.6c0.8,0.5,1.9,0.8,3.1,0.8c1,0,1.8-0.2,2.5-0.5c0.7-0.3,1.3-0.8,1.8-1.3
			c0.5-0.5,0.8-1.2,1.1-1.9c0.3-0.7,0.4-1.5,0.4-2.3v-1.3H179.9z"/>
		<path fill="#FFFFFF" d="M206.4,261.8c-0.7-0.8-1.5-1.5-2.3-1.8c-0.8-0.4-1.7-0.6-2.7-0.6c-1.1,0-2.1,0.2-2.9,0.6
			c-0.8,0.4-1.5,0.9-2.1,1.6c-0.5,0.7-1,1.5-1.2,2.3c-0.3,0.9-0.4,1.8-0.4,2.8c0,1,0.2,2,0.5,2.8c0.3,0.9,0.8,1.7,1.3,2.3
			c0.6,0.7,1.3,1.2,2.1,1.6c0.8,0.4,1.7,0.6,2.7,0.6c2.2,0,3.8-0.8,5-2.4l2.4,2.3c-1,1.1-2.1,1.9-3.4,2.4s-2.6,0.8-4.1,0.8
			c-1.5,0-2.9-0.3-4.2-0.8s-2.3-1.2-3.2-2.1c-0.9-0.9-1.6-2-2.1-3.3c-0.5-1.3-0.7-2.6-0.7-4.2c0-1.5,0.2-2.9,0.7-4.1
			c0.5-1.3,1.2-2.4,2.1-3.3c0.9-0.9,2-1.6,3.2-2.2c1.2-0.5,2.6-0.8,4.1-0.8c1.5,0,2.8,0.3,4.1,0.8s2.4,1.3,3.4,2.4L206.4,261.8z"/>
		<path fill="#FFFFFF" d="M212.7,244.8h3.3v14.8h0.1c0.2-0.4,0.5-0.8,0.9-1.2c0.4-0.4,0.9-0.7,1.4-1c0.5-0.3,1.2-0.6,1.8-0.8
			c0.7-0.2,1.4-0.3,2.1-0.3c1.3,0,2.4,0.2,3.3,0.6c0.9,0.4,1.7,0.9,2.3,1.6c0.6,0.7,1.1,1.5,1.4,2.5c0.3,1,0.4,2.1,0.4,3.3v12.2
			h-3.3v-11.8c0-1.7-0.4-3-1.1-3.9c-0.7-1-1.9-1.4-3.4-1.4c-1.1,0-2,0.2-2.8,0.5c-0.8,0.4-1.4,0.9-1.9,1.6c-0.5,0.7-0.9,1.5-1.1,2.4
			c-0.2,0.9-0.4,1.9-0.4,3.1v9.6h-3.3V244.8z"/>
		<path fill="#E4D520" d="M235.6,249.2c0-0.6,0.2-1.2,0.7-1.7c0.5-0.5,1-0.7,1.7-0.7c0.7,0,1.2,0.2,1.7,0.7c0.5,0.5,0.7,1,0.7,1.7
			c0,0.7-0.2,1.3-0.7,1.7c-0.4,0.5-1,0.7-1.7,0.7c-0.7,0-1.3-0.2-1.7-0.7C235.9,250.5,235.6,249.9,235.6,249.2z M236.4,256.9h3.3
			v19.7h-3.3V256.9z"/>
		<path fill="#FFFFFF" d="M246.2,261.6c0-0.9,0-1.7-0.1-2.5c-0.1-0.8-0.1-1.5-0.1-2.1h3.1c0,0.5,0,1.1,0,1.6c0,0.5,0,1.1,0,1.6h0.1
			c0.2-0.5,0.5-0.9,0.9-1.4s0.9-0.8,1.5-1.2c0.6-0.4,1.2-0.6,1.9-0.8c0.7-0.2,1.5-0.3,2.3-0.3c1.3,0,2.4,0.2,3.3,0.6
			c0.9,0.4,1.7,0.9,2.3,1.6c0.6,0.7,1.1,1.5,1.4,2.5c0.3,1,0.4,2.1,0.4,3.3v12.2h-3.3v-11.8c0-1.7-0.4-3-1.1-3.9
			c-0.7-1-1.9-1.4-3.4-1.4c-1.1,0-2,0.2-2.8,0.5c-0.8,0.4-1.4,0.9-1.9,1.6c-0.5,0.7-0.9,1.5-1.1,2.4c-0.2,0.9-0.4,1.9-0.4,3.1v9.6
			h-3.3V261.6z"/>
		<path fill="#FFFFFF" d="M287.1,273c-1.2,1.5-2.5,2.6-3.9,3.2c-1.4,0.6-3,0.9-4.9,0.9c-1.5,0-2.9-0.3-4.2-0.8
			c-1.2-0.5-2.3-1.3-3.1-2.2c-0.9-0.9-1.5-2-2-3.3c-0.5-1.3-0.7-2.6-0.7-4c0-1.5,0.3-2.9,0.8-4.2c0.5-1.3,1.2-2.4,2.1-3.3
			c0.9-0.9,2-1.6,3.2-2.1c1.2-0.5,2.6-0.8,4-0.8c1.4,0,2.6,0.2,3.8,0.7s2.1,1.1,3,2c0.8,0.9,1.5,2,1.9,3.2c0.4,1.3,0.7,2.7,0.7,4.4
			v1.1H272c0.1,0.8,0.3,1.6,0.6,2.4c0.3,0.8,0.8,1.4,1.4,2c0.6,0.6,1.2,1,2,1.4c0.8,0.3,1.6,0.5,2.5,0.5c1.4,0,2.6-0.3,3.6-0.8
			c1-0.5,1.9-1.2,2.6-2.2L287.1,273z M284.3,265c-0.1-1.7-0.6-3-1.6-4c-1-1-2.5-1.5-4.3-1.5c-1.8,0-3.3,0.5-4.4,1.5
			c-1.1,1-1.8,2.4-2,4H284.3z"/>
		<path fill="#FFFFFF" d="M293.4,271.4c0.6,0.8,1.4,1.5,2.1,1.9c0.8,0.5,1.7,0.7,2.9,0.7c0.5,0,1-0.1,1.5-0.2c0.5-0.1,1-0.3,1.4-0.5
			c0.4-0.3,0.8-0.6,1-0.9c0.3-0.4,0.4-0.8,0.4-1.4c0-0.5-0.1-1-0.4-1.3c-0.2-0.3-0.6-0.6-0.9-0.9c-0.4-0.2-0.8-0.4-1.3-0.6
			c-0.5-0.1-1-0.3-1.6-0.4c-0.9-0.2-1.8-0.4-2.7-0.7c-0.8-0.3-1.6-0.6-2.2-1c-0.6-0.4-1.1-0.9-1.5-1.6c-0.4-0.6-0.6-1.5-0.6-2.5
			c0-1,0.2-1.8,0.6-2.5c0.4-0.7,1-1.3,1.7-1.8c0.7-0.5,1.5-0.8,2.4-1.1c0.9-0.3,1.8-0.4,2.7-0.4c1.4,0,2.7,0.3,3.9,0.8
			c1.2,0.6,2.1,1.5,2.8,2.7l-2.7,1.8c-0.4-0.7-1-1.3-1.7-1.7c-0.7-0.4-1.5-0.7-2.5-0.7c-0.4,0-0.9,0.1-1.4,0.2
			c-0.5,0.1-0.9,0.3-1.2,0.5c-0.4,0.2-0.7,0.5-0.9,0.9c-0.2,0.4-0.4,0.8-0.4,1.2c0,0.4,0.1,0.8,0.4,1.1c0.3,0.3,0.6,0.6,1.1,0.8
			c0.5,0.2,1,0.4,1.6,0.6c0.6,0.2,1.2,0.3,1.9,0.4c0.9,0.2,1.7,0.4,2.5,0.6c0.8,0.3,1.5,0.6,2.1,1.1c0.6,0.5,1,1,1.4,1.7
			c0.3,0.7,0.5,1.5,0.5,2.5c0,1.1-0.2,2.1-0.7,2.9c-0.4,0.8-1,1.4-1.8,1.9c-0.7,0.5-1.6,0.8-2.5,1.1c-0.9,0.2-1.9,0.3-2.9,0.3
			c-1.7,0-3.1-0.3-4.4-0.8c-1.2-0.5-2.3-1.5-3.3-2.9L293.4,271.4z"/>
	</g>
	<g>
		<path fill="#FFF200" d="M189,110.8l11.5-3.3l-10.4-4.1l8.4-19.9l-12.9,11.9l-3.2-11.6l-2.7,11.6l-13.2-13.3l5.1,14.5l-8.1-3.5
			l4.6,6.5L151.3,97l15.9,9.5l-11.4,4.3l12.2,0.6l-15.3,10.7l18.9-4.7l0.1,14.8l9.9-17.4l19.2,17.7L189,110.8z M177.1,119.2
			l-0.4-7.4l-7.3,2.4l5.9-4.9l-7.2-0.2l6.7-2.1l-8.4-5l7.9,1.3l-1.9-3.3l3.7,1.7l-2-6.9l6.5,6.6l1.6-5l1.3,4.7l7.1-6.4l-4.4,11
			l4.8,1.7l-5.4,2.1l4.1,8.1l-8.2-6.4L177.1,119.2z"/>
		<polygon fill="#FFFFFF" stroke="#FFFFFF" stroke-width="5.000000e-02" stroke-miterlimit="10" points="166.4,101.9 174.2,103.2 
			172.4,99.9 176.1,101.5 174,94.6 180.6,101.2 182.2,96.2 183.5,101 190.6,94.6 186.3,105.6 191.1,107.4 185.7,109.5 189.9,117.6 
			181.7,111.2 177.1,119.2 176.7,111.9 169.3,114.2 175.2,109.3 168,109.1 174.7,106.9 		"/>
	</g>
</g>
</svg>
