<?xml version="1.0" encoding="utf-8"?>
<!-- Generator: Adobe Illustrator 18.1.1, SVG Export Plug-In . SVG Version: 6.00 Build 0)  -->
<svg version="1.1" id="Layer_1" xmlns="http://www.w3.org/2000/svg" xmlns:xlink="http://www.w3.org/1999/xlink" x="0px" y="0px"
	 viewBox="0 0 144 144" enable-background="new 0 0 144 144" xml:space="preserve">
<path fill="#FFF200" d="M98.6,82.4l27.9-7.9l-25.3-10l20.4-48.3l-31.3,29l-7.7-28.1l-6.6,28.2L43.9,13l12.4,35.1l-19.7-8.6
	l11.3,15.7L7.2,48.8l38.5,23.1L18.1,82.4l29.7,1.4l-37.1,25.8l45.9-11.4l0.2,35.8l24-42.1l46.7,43L98.6,82.4z M69.7,102.8l-1-17.9
	l-17.8,5.7l14.3-11.9l-17.5-0.6L64,72.9L43.7,60.8l19.1,3.1l-4.6-8.1l9.1,4l-5-16.8l15.9,16l4-12l3.1,11.5L102.6,43L92.1,69.7
	l11.8,4.2l-13.1,5.2l10,19.5L80.9,83.3L69.7,102.8z"/>
<polygon fill="#FFFFFF" points="69.7,102.8 68.7,84.9 50.9,90.6 65.2,78.7 47.7,78.1 64,72.9 43.7,60.8 62.8,63.9 58.3,55.8 
	67.3,59.8 62.4,43 78.3,59 82.2,47 85.3,58.4 102.6,43 92.1,69.7 103.8,74 90.7,79.1 100.7,98.7 80.9,83.3 "/>
</svg>
