<?xml version="1.0" encoding="utf-8"?>
<!-- Generator: Adobe Illustrator 18.1.1, SVG Export Plug-In . SVG Version: 6.00 Build 0)  -->
<svg version="1.1" id="Layer_1" xmlns="http://www.w3.org/2000/svg" xmlns:xlink="http://www.w3.org/1999/xlink" x="0px" y="0px"
	 viewBox="0 0 590.4 158.4" enable-background="new 0 0 590.4 158.4" xml:space="preserve">
<g>
	<g>
		<path d="M151.9,65.4c1.8-1.9,4-3.3,6.5-4.2c2.5-0.9,5.1-1.3,7.7-1.3c5.3,0,9.1,1.2,11.5,3.7c2.3,2.5,3.5,6.3,3.5,11.4v15.4
			c0,1,0.1,2.1,0.2,3.2c0.1,1.1,0.2,2.1,0.4,3H176c-0.2-0.8-0.3-1.7-0.3-2.7c0-1,0-1.9,0-2.6h-0.2c-1.2,1.8-2.7,3.3-4.7,4.5
			c-2,1.2-4.3,1.8-7.1,1.8c-1.8,0-3.6-0.2-5.2-0.7c-1.6-0.5-3-1.1-4.2-2c-1.2-0.9-2.2-2-2.9-3.3c-0.7-1.3-1.1-2.9-1.1-4.6
			c0-3,0.8-5.3,2.3-7c1.5-1.7,3.4-2.9,5.7-3.7c2.3-0.8,4.7-1.3,7.3-1.5c2.6-0.2,5-0.3,7.2-0.3h2.3v-1.1c0-2.6-0.8-4.6-2.3-5.9
			c-1.6-1.3-3.7-2-6.5-2c-1.9,0-3.8,0.3-5.7,1c-1.9,0.6-3.5,1.6-4.9,2.9L151.9,65.4z M169.2,79.4c-3.8,0-6.9,0.5-9.1,1.6
			c-2.2,1.1-3.4,2.8-3.4,5.3c0,2.2,0.8,3.8,2.3,4.8c1.5,0.9,3.4,1.4,5.6,1.4c1.7,0,3.2-0.3,4.5-0.9c1.3-0.6,2.4-1.4,3.2-2.3
			c0.9-1,1.5-2.1,2-3.4c0.5-1.3,0.7-2.7,0.8-4.2v-2.3H169.2z"/>
		<path d="M192.1,69.3c0-1.6-0.1-3.2-0.2-4.6c-0.1-1.4-0.2-2.7-0.2-3.9h5.7c0,1,0,1.9,0.1,2.9c0.1,1,0.1,2,0.1,3h0.2
			c0.4-0.9,1-1.7,1.7-2.5c0.7-0.8,1.6-1.5,2.6-2.2c1-0.6,2.2-1.1,3.4-1.5c1.3-0.4,2.7-0.6,4.1-0.6c0.4,0,0.8,0,1.2,0.1
			c0.4,0.1,0.8,0.2,1.2,0.3l-0.4,6c-1-0.3-2.1-0.5-3.2-0.5c-3.7,0-6.3,1.2-8,3.6c-1.7,2.4-2.5,5.6-2.5,9.7v17.4h-6V69.3z"/>
		<path d="M238.6,65.9H228v17.9c0,1.2,0,2.3,0.1,3.2c0.1,1,0.3,1.9,0.6,2.6c0.4,0.7,0.9,1.3,1.6,1.8c0.7,0.4,1.7,0.6,3.1,0.6
			c0.9,0,1.8-0.1,2.7-0.3c0.9-0.2,1.8-0.5,2.6-0.9l0.2,5.4c-1,0.5-2.2,0.8-3.4,1c-1.2,0.2-2.4,0.3-3.6,0.3c-2.1,0-3.8-0.3-5.1-0.8
			c-1.3-0.6-2.3-1.4-3-2.4c-0.7-1-1.2-2.3-1.4-3.8c-0.2-1.5-0.3-3.2-0.3-5V65.9h-7.8v-5h7.8V50.7h6v10.2h10.6V65.9z"/>
		<path d="M268.2,42.5h9.6l18.4,42.4h0.2l18.5-42.4h9.3v54.1h-6.4V51.2h-0.2l-19.4,45.4h-3.9l-19.4-45.4h-0.2v45.4h-6.4V42.5z"/>
		<path fill="#E5D61D" d="M336.1,65.4c1.8-1.9,4-3.3,6.5-4.2c2.5-0.9,5.1-1.3,7.7-1.3c5.3,0,9.1,1.2,11.5,3.7
			c2.3,2.5,3.5,6.3,3.5,11.4v15.4c0,1,0.1,2.1,0.2,3.2c0.1,1.1,0.2,2.1,0.4,3h-5.7c-0.2-0.8-0.3-1.7-0.3-2.7c0-1,0-1.9,0-2.6h-0.2
			c-1.2,1.8-2.7,3.3-4.7,4.5c-2,1.2-4.3,1.8-7.1,1.8c-1.8,0-3.6-0.2-5.2-0.7c-1.6-0.5-3-1.1-4.2-2c-1.2-0.9-2.2-2-2.9-3.3
			s-1.1-2.9-1.1-4.6c0-3,0.8-5.3,2.3-7c1.5-1.7,3.4-2.9,5.7-3.7c2.3-0.8,4.7-1.3,7.3-1.5c2.6-0.2,5-0.3,7.2-0.3h2.3v-1.1
			c0-2.6-0.8-4.6-2.3-5.9c-1.6-1.3-3.7-2-6.5-2c-1.9,0-3.8,0.3-5.7,1c-1.9,0.6-3.5,1.6-4.9,2.9L336.1,65.4z M353.3,79.4
			c-3.8,0-6.9,0.5-9.1,1.6c-2.2,1.1-3.4,2.8-3.4,5.3c0,2.2,0.8,3.8,2.3,4.8c1.5,0.9,3.4,1.4,5.6,1.4c1.7,0,3.2-0.3,4.5-0.9
			c1.3-0.6,2.4-1.4,3.2-2.3c0.9-1,1.5-2.1,2-3.4c0.5-1.3,0.7-2.7,0.8-4.2v-2.3H353.3z"/>
		<path d="M401.7,69.8c-1.3-1.5-2.7-2.6-4.1-3.3c-1.5-0.7-3.1-1-4.9-1c-2,0-3.7,0.3-5.3,1c-1.5,0.7-2.8,1.6-3.8,2.9
			c-1,1.2-1.7,2.6-2.3,4.2c-0.5,1.6-0.8,3.3-0.8,5.2c0,1.8,0.3,3.6,0.9,5.2c0.6,1.6,1.4,3,2.4,4.2c1,1.2,2.3,2.2,3.8,2.9
			c1.5,0.7,3.1,1,5,1c3.9,0,7-1.5,9.1-4.4l4.4,4.2c-1.7,2-3.8,3.4-6.1,4.4c-2.3,0.9-4.8,1.4-7.4,1.4c-2.8,0-5.3-0.5-7.6-1.4
			c-2.3-0.9-4.2-2.2-5.8-3.9s-2.9-3.7-3.7-6c-0.9-2.3-1.3-4.8-1.3-7.6c0-2.7,0.4-5.2,1.3-7.5c0.9-2.3,2.2-4.3,3.8-6
			c1.6-1.7,3.6-3,5.8-3.9c2.3-0.9,4.8-1.4,7.5-1.4c2.7,0,5.2,0.5,7.5,1.4c2.4,0.9,4.4,2.3,6.2,4.3L401.7,69.8z"/>
		<path d="M413.1,38.8h6v27h0.2c0.4-0.7,1-1.4,1.7-2.1c0.7-0.7,1.6-1.3,2.6-1.9c1-0.6,2.1-1,3.3-1.4c1.2-0.4,2.5-0.5,3.9-0.5
			c2.3,0,4.4,0.4,6.1,1.1c1.7,0.7,3.1,1.7,4.2,3c1.1,1.3,2,2.8,2.5,4.6c0.5,1.8,0.8,3.8,0.8,5.9v22.1h-6V75.1c0-3-0.7-5.4-2-7.1
			c-1.3-1.7-3.4-2.6-6.2-2.6c-1.9,0-3.6,0.3-5,1c-1.4,0.7-2.5,1.6-3.4,2.8c-0.9,1.2-1.6,2.7-2,4.4c-0.4,1.7-0.6,3.5-0.6,5.6v17.4h-6
			V38.8z"/>
		<path fill="#E4D520" d="M454.7,46.9c0-1.2,0.4-2.2,1.3-3.1c0.8-0.9,1.9-1.3,3.1-1.3s2.3,0.4,3.1,1.3c0.8,0.9,1.3,1.9,1.3,3.1
			c0,1.3-0.4,2.3-1.2,3.1c-0.8,0.8-1.9,1.2-3.1,1.2c-1.3,0-2.3-0.4-3.1-1.2C455.1,49.2,454.7,48.1,454.7,46.9z M456.1,60.8h6v35.8
			h-6V60.8z"/>
		<path d="M473.9,69.3c0-1.6-0.1-3.2-0.2-4.6c-0.1-1.4-0.2-2.7-0.2-3.9h5.7c0,1,0,1.9,0.1,2.9c0.1,1,0.1,2,0.1,3h0.2
			c0.4-0.9,1-1.7,1.7-2.5c0.7-0.8,1.6-1.5,2.6-2.2c1-0.6,2.2-1.1,3.4-1.5c1.3-0.4,2.7-0.6,4.1-0.6c2.3,0,4.4,0.4,6.1,1.1
			c1.7,0.7,3.1,1.7,4.2,3c1.1,1.3,2,2.8,2.5,4.6c0.5,1.8,0.8,3.8,0.8,5.9v22.1h-6V75.1c0-3-0.7-5.4-2-7.1c-1.3-1.7-3.4-2.6-6.2-2.6
			c-1.9,0-3.6,0.3-5,1c-1.4,0.7-2.5,1.6-3.4,2.8c-0.9,1.2-1.6,2.7-2,4.4c-0.4,1.7-0.6,3.5-0.6,5.6v17.4h-6V69.3z"/>
		<path d="M548.4,90.1c-2.1,2.8-4.5,4.7-7,5.8c-2.6,1.1-5.5,1.6-8.9,1.6c-2.8,0-5.3-0.5-7.6-1.5c-2.2-1-4.1-2.3-5.7-4
			c-1.6-1.7-2.8-3.7-3.6-6c-0.8-2.3-1.3-4.7-1.3-7.3c0-2.8,0.5-5.3,1.4-7.6c0.9-2.3,2.2-4.3,3.8-6c1.6-1.7,3.6-2.9,5.8-3.9
			c2.2-0.9,4.7-1.4,7.3-1.4c2.5,0,4.8,0.4,6.9,1.3c2.1,0.8,3.9,2.1,5.4,3.7c1.5,1.6,2.7,3.6,3.5,5.9c0.8,2.3,1.2,5,1.2,7.9v1.9
			h-28.9c0.1,1.5,0.5,3,1.1,4.4c0.6,1.4,1.5,2.6,2.5,3.7c1,1,2.2,1.9,3.6,2.5c1.4,0.6,2.9,0.9,4.5,0.9c2.6,0,4.8-0.5,6.6-1.4
			c1.8-0.9,3.4-2.3,4.8-4.1L548.4,90.1z M543.3,75.5c-0.1-3.1-1.1-5.5-3-7.3c-1.9-1.8-4.5-2.8-7.8-2.8c-3.3,0-6,0.9-8,2.8
			c-2,1.8-3.3,4.3-3.7,7.3H543.3z"/>
		<path d="M559.7,87.2c1.2,1.5,2.5,2.7,3.9,3.5s3.2,1.3,5.3,1.3c0.9,0,1.8-0.1,2.8-0.3c0.9-0.2,1.8-0.5,2.6-1s1.4-1,1.8-1.7
			c0.5-0.7,0.7-1.5,0.7-2.5c0-1-0.2-1.8-0.7-2.4c-0.4-0.6-1-1.1-1.7-1.6c-0.7-0.4-1.5-0.8-2.4-1c-0.9-0.3-1.9-0.5-2.8-0.7
			c-1.7-0.4-3.3-0.8-4.8-1.2c-1.5-0.5-2.9-1.1-4-1.8c-1.1-0.7-2.1-1.7-2.8-2.9c-0.7-1.2-1-2.7-1-4.5c0-1.7,0.4-3.3,1.1-4.6
			c0.8-1.3,1.8-2.4,3.1-3.3c1.3-0.9,2.7-1.5,4.3-2c1.6-0.5,3.2-0.7,4.9-0.7c2.6,0,4.9,0.5,7.1,1.5c2.2,1,3.9,2.7,5.1,5l-5,3.3
			c-0.8-1.3-1.8-2.3-3-3.1c-1.2-0.8-2.8-1.2-4.5-1.2c-0.8,0-1.6,0.1-2.5,0.3c-0.8,0.2-1.6,0.5-2.3,0.9c-0.7,0.4-1.2,0.9-1.6,1.6
			c-0.4,0.6-0.7,1.4-0.7,2.2c0,0.8,0.2,1.4,0.7,2c0.5,0.5,1.1,1,2,1.4c0.8,0.4,1.8,0.8,2.9,1.1c1.1,0.3,2.2,0.6,3.4,0.8
			c1.6,0.3,3.1,0.7,4.5,1.2c1.4,0.5,2.7,1.1,3.7,2c1.1,0.8,1.9,1.8,2.5,3.1s0.9,2.7,0.9,4.5c0,2-0.4,3.8-1.2,5.2s-1.9,2.6-3.2,3.5
			c-1.4,0.9-2.9,1.5-4.6,1.9c-1.7,0.4-3.5,0.6-5.2,0.6c-3.1,0-5.7-0.5-7.9-1.4c-2.2-0.9-4.2-2.7-6-5.2L559.7,87.2z"/>
	</g>
	<path fill="#FFF200" d="M98.6,87.6l27.9-7.9l-25.3-10l20.4-48.3l-31.3,29l-7.7-28.1l-6.6,28.2l-32-32.2l12.4,35.1l-19.7-8.6
		l11.3,15.7L7.2,54l38.5,23.1L18,87.6L47.7,89l-37.1,25.8l45.9-11.4l0.2,35.8l24-42.1l46.7,43L98.6,87.6z M69.7,108l-1-17.9
		l-17.8,5.7l14.3-11.9l-17.5-0.6L64,78.1L43.7,66l19.1,3.1L58.2,61l9.1,4l-5-16.8l15.9,16l4-12l3.1,11.5l17.3-15.4L92,75l11.8,4.2
		l-13.1,5.2l10,19.5L80.9,88.5L69.7,108z"/>
	<g>
		<polygon fill="#FFFFFF" points="43.7,66 62.8,69.1 58.2,61 67.3,65.1 62.4,48.2 78.2,64.2 82.2,52.2 85.3,63.7 102.6,48.2 92,75 
			103.8,79.2 90.7,84.4 100.7,103.9 80.9,88.5 69.7,108 68.7,90.1 50.9,95.8 65.2,83.9 47.7,83.3 64,78.1 		"/>
		<path fill="#FFFFFF" d="M69.6,108.5l-1-18.2l-18.2,5.9L64.8,84l-17.9-0.6l16.7-5.4L43.1,65.8l19.5,3.1L58,60.7l9.2,4.1l-5-17
			L78.2,64l4-12.2l0.1,0.4l3,11.3l17.6-15.6L92.2,74.9l11.9,4.3l-13.3,5.2l10.2,19.9L80.9,88.7L69.6,108.5z M68.8,89.9l1,17.7
			l11-19.3l0.1,0.1l19.4,15.1l-9.8-19.2l0.1-0.1l12.8-5L91.9,75l0-0.1l10.4-26.2L85.2,63.9l-3-11.3l-3.9,11.8L62.6,48.7l4.9,16.6
			l-9-4l4.5,8l-18.7-3l20,11.9l-15.9,5.1l17.1,0.6L65.2,84L51.5,95.5L68.8,89.9z"/>
	</g>
</g>
</svg>
