<?xml version="1.0" encoding="utf-8"?>
<!-- Generator: Adobe Illustrator 18.1.1, SVG Export Plug-In . SVG Version: 6.00 Build 0)  -->
<svg version="1.1" id="Layer_1" xmlns="http://www.w3.org/2000/svg" xmlns:xlink="http://www.w3.org/1999/xlink" x="0px" y="0px"
	 viewBox="0 0 374.4 374.4" enable-background="new 0 0 374.4 374.4" xml:space="preserve">
<g>
	<circle cx="187.2" cy="187.2" r="180"/>
	<path fill="#FFFFFF" d="M126,220.6h-0.4c-3.1,4.8-7.1,8.2-12.2,10.3c-5.1,2.1-10.4,3.1-16.1,3.1c-4.2,0-8.2-0.6-12-1.7
		c-3.9-1.2-7.2-2.9-10.2-5.2c-2.9-2.3-5.3-5.2-7-8.6c-1.7-3.4-2.6-7.4-2.6-11.9c0-5.1,0.9-9.5,2.8-13c1.9-3.6,4.5-6.5,7.7-8.8
		c3.2-2.3,6.9-4.1,11.1-5.4s8.5-2.2,12.9-2.8c4.5-0.6,8.9-1,13.4-1.1c4.5-0.1,8.6-0.2,12.4-0.2c0-4.9-1.7-8.8-5.2-11.7
		c-3.5-2.9-7.6-4.3-12.4-4.3c-4.5,0-8.7,0.9-12.4,2.8c-3.7,1.9-7.1,4.5-10,7.8l-14.7-15.1c5.1-4.8,11.1-8.4,18-10.7
		c6.9-2.4,14-3.6,21.3-3.6c8.1,0,14.7,1,19.9,3c5.2,2,9.4,5,12.5,8.9c3.1,3.9,5.3,8.7,6.5,14.4c1.2,5.7,1.8,12.3,1.8,19.7v45.3H126
		V220.6z M119.2,192.7c-2.1,0-4.7,0.1-7.8,0.3c-3.1,0.2-6.1,0.7-9,1.6c-2.9,0.9-5.3,2.1-7.3,3.9c-2,1.7-3,4.1-3,7.2
		c0,3.3,1.4,5.8,4.2,7.3c2.8,1.6,5.8,2.4,8.8,2.4c2.7,0,5.3-0.4,7.8-1.1c2.5-0.7,4.7-1.8,6.7-3.1c2-1.3,3.5-3.1,4.7-5.1
		c1.2-2.1,1.7-4.5,1.7-7.3v-5.9H119.2z"/>
	<path fill="#FFFFFF" d="M168.6,142.6H195v12.1h0.4c0.9-1.7,2.1-3.4,3.7-5.1c1.6-1.7,3.5-3.2,5.7-4.6c2.2-1.3,4.7-2.4,7.5-3.3
		c2.8-0.9,5.9-1.3,9.2-1.3c6.2,0,11.8,1.3,16.6,3.9c4.8,2.6,8.5,6.6,10.9,12.1c3.2-5.8,7-9.9,11.6-12.3c4.5-2.4,10.1-3.7,16.7-3.7
		c6,0,11,1,15.1,3c4.1,2,7.3,4.8,9.7,8.3c2.4,3.5,4.1,7.6,5.1,12.3c1,4.7,1.6,9.8,1.6,15.1v52.7h-27.5v-52c0-4.2-0.9-7.7-2.7-10.7
		c-1.8-3-4.9-4.5-9.5-4.5c-3.2,0-5.8,0.5-8,1.6c-2.1,1-3.9,2.5-5.1,4.3c-1.3,1.8-2.2,4-2.8,6.4c-0.6,2.4-0.8,5-0.8,7.7v47.2h-27.5
		v-47.2c0-1.6-0.1-3.5-0.2-5.9c-0.1-2.3-0.6-4.5-1.3-6.6c-0.7-2.1-1.9-3.9-3.6-5.3s-4.1-2.2-7.2-2.2c-3.6,0-6.4,0.6-8.6,1.9
		c-2.2,1.3-3.9,3-5,5.1c-1.2,2.1-1.9,4.6-2.3,7.2c-0.4,2.7-0.5,5.5-0.5,8.4v44.4h-27.5V142.6z"/>
	<g>
		<path fill="#FFF200" d="M189,114.1l11.5-3.3l-10.4-4.1l8.4-19.9l-12.9,11.9l-3.2-11.6l-2.7,11.6l-13.2-13.3l5.1,14.5l-8.1-3.5
			l4.6,6.5l-16.8-2.7l15.9,9.5l-11.4,4.3l12.2,0.6l-15.3,10.7l18.9-4.7l0.1,14.8l9.9-17.4l19.2,17.7L189,114.1z M177.1,122.5
			l-0.4-7.4l-7.3,2.4l5.9-4.9l-7.2-0.2l6.7-2.1l-8.4-5l7.9,1.3l-1.9-3.3l3.7,1.7l-2-6.9l6.5,6.6l1.6-5l1.3,4.7l7.1-6.4l-4.4,11
			l4.8,1.7l-5.4,2.1l4.1,8.1l-8.2-6.4L177.1,122.5z"/>
		<polygon fill="#FFFFFF" stroke="#FFFFFF" stroke-width="5.000000e-02" stroke-miterlimit="10" points="166.4,105.2 174.2,106.5 
			172.4,103.2 176.1,104.8 174,97.9 180.6,104.5 182.2,99.5 183.5,104.2 190.6,97.9 186.3,108.9 191.1,110.7 185.7,112.8 
			189.9,120.8 181.7,114.5 177.1,122.5 176.7,115.1 169.3,117.5 175.2,112.6 168,112.4 174.7,110.2 		"/>
	</g>
</g>
</svg>
